<svg width="1280" height="720" viewBox="0 0 1280 720" xmlns="http://www.w3.org/2000/svg">
  <!-- Background -->
  <rect width="1280" height="720" fill="#f8fafc"/>
  
  <!-- Browser Chrome -->
  <rect width="1280" height="40" fill="#e2e8f0"/>
  <circle cx="20" cy="20" r="6" fill="#ef4444"/>
  <circle cx="40" cy="20" r="6" fill="#f59e0b"/>
  <circle cx="60" cy="20" r="6" fill="#10b981"/>
  <rect x="80" y="10" width="200" height="20" rx="10" fill="#cbd5e1"/>
  
  <!-- Header -->
  <rect y="40" width="1280" height="80" fill="#1e3a8a"/>
  <rect x="20" y="60" width="200" height="40" rx="8" fill="#ffffff" opacity="0.9"/>
  <rect x="1100" y="60" width="160" height="40" rx="8" fill="#ea580c"/>
  
  <!-- Hero Section -->
  <rect y="120" width="1280" height="400" fill="url(#heroGradient)"/>
  <rect x="100" y="180" width="500" height="60" rx="8" fill="#ffffff" opacity="0.9"/>
  <rect x="100" y="260" width="400" height="20" rx="4" fill="#ffffff" opacity="0.7"/>
  <rect x="100" y="290" width="420" height="20" rx="4" fill="#ffffff" opacity="0.7"/>
  <rect x="100" y="350" width="180" height="50" rx="8" fill="#ea580c"/>
  <rect x="300" y="350" width="180" height="50" rx="8" fill="#ffffff" opacity="0.2" stroke="#ffffff" stroke-width="2"/>
  
  <!-- Dashboard Image -->
  <rect x="700" y="160" width="480" height="300" rx="12" fill="#ffffff" opacity="0.9"/>
  <rect x="720" y="180" width="440" height="40" rx="4" fill="#e2e8f0"/>
  <rect x="720" y="240" width="200" height="20" rx="4" fill="#cbd5e1"/>
  <rect x="720" y="270" width="180" height="20" rx="4" fill="#cbd5e1"/>
  <rect x="720" y="300" width="220" height="20" rx="4" fill="#cbd5e1"/>
  <rect x="940" y="240" width="220" height="20" rx="4" fill="#10b981" opacity="0.7"/>
  <rect x="940" y="270" width="200" height="20" rx="4" fill="#10b981" opacity="0.7"/>
  <rect x="940" y="300" width="180" height="20" rx="4" fill="#10b981" opacity="0.7"/>
  
  <!-- Stats Cards -->
  <rect x="720" y="340" width="100" height="80" rx="8" fill="#ffffff" opacity="0.9"/>
  <rect x="840" y="340" width="100" height="80" rx="8" fill="#ffffff" opacity="0.9"/>
  <rect x="960" y="340" width="100" height="80" rx="8" fill="#ffffff" opacity="0.9"/>
  <rect x="1080" y="340" width="100" height="80" rx="8" fill="#ffffff" opacity="0.9"/>
  
  <!-- Features Section -->
  <rect y="520" width="1280" height="200" fill="#ffffff"/>
  <rect x="100" y="560" width="280" height="120" rx="12" fill="#f1f5f9"/>
  <rect x="420" y="560" width="280" height="120" rx="12" fill="#f1f5f9"/>
  <rect x="740" y="560" width="280" height="120" rx="12" fill="#f1f5f9"/>
  <rect x="1040" y="560" width="280" height="120" rx="12" fill="#f1f5f9"/>
  
  <!-- Feature Icons -->
  <circle cx="240" cy="600" r="20" fill="#0ea5e9"/>
  <circle cx="560" cy="600" r="20" fill="#ea580c"/>
  <circle cx="880" cy="600" r="20" fill="#10b981"/>
  <circle cx="1180" cy="600" r="20" fill="#8b5cf6"/>
  
  <!-- Feature Text -->
  <rect x="160" y="630" width="160" height="8" rx="4" fill="#cbd5e1"/>
  <rect x="140" y="650" width="200" height="8" rx="4" fill="#e2e8f0"/>
  <rect x="140" y="665" width="180" height="8" rx="4" fill="#e2e8f0"/>
  
  <rect x="480" y="630" width="160" height="8" rx="4" fill="#cbd5e1"/>
  <rect x="460" y="650" width="200" height="8" rx="4" fill="#e2e8f0"/>
  <rect x="460" y="665" width="180" height="8" rx="4" fill="#e2e8f0"/>
  
  <rect x="800" y="630" width="160" height="8" rx="4" fill="#cbd5e1"/>
  <rect x="780" y="650" width="200" height="8" rx="4" fill="#e2e8f0"/>
  <rect x="780" y="665" width="180" height="8" rx="4" fill="#e2e8f0"/>
  
  <rect x="1100" y="630" width="160" height="8" rx="4" fill="#cbd5e1"/>
  <rect x="1080" y="650" width="200" height="8" rx="4" fill="#e2e8f0"/>
  <rect x="1080" y="665" width="180" height="8" rx="4" fill="#e2e8f0"/>
  
  <!-- Definitions -->
  <defs>
    <linearGradient id="heroGradient" x1="0%" y1="0%" x2="100%" y2="100%">
      <stop offset="0%" style="stop-color:#1e3a8a;stop-opacity:1" />
      <stop offset="100%" style="stop-color:#0ea5e9;stop-opacity:1" />
    </linearGradient>
  </defs>
</svg>