<svg width="64" height="64" viewBox="0 0 64 64" xmlns="http://www.w3.org/2000/svg">
  <!-- Background circle -->
  <circle cx="32" cy="32" r="30" fill="#10b981" opacity="0.1"/>
  <circle cx="32" cy="32" r="30" stroke="#10b981" stroke-width="2" fill="none"/>
  
  <!-- Cloud shape -->
  <path d="M 20 36 C 16 36, 12 32, 12 28 C 12 24, 15 20, 19 20 C 20 16, 24 12, 28 12 C 34 12, 38 16, 38 20 C 42 20, 45 23, 45 27 C 45 31, 42 34, 38 34 L 20 36 Z" 
        fill="white" stroke="#10b981" stroke-width="2"/>
  
  <!-- Database cylinder -->
  <ellipse cx="32" cy="42" rx="12" ry="4" fill="#10b981"/>
  <rect x="20" y="42" width="24" height="8" fill="#10b981"/>
  <ellipse cx="32" cy="50" rx="12" ry="4" fill="#10b981"/>
  
  <!-- Database lines -->
  <ellipse cx="32" cy="46" rx="12" ry="4" fill="none" stroke="white" stroke-width="1"/>
  
  <!-- Arrow indicating backup -->
  <path d="M 28 28 L 32 24 L 36 28" stroke="#10b981" stroke-width="2" fill="none" stroke-linecap="round" stroke-linejoin="round"/>
  <line x1="32" y1="24" x2="32" y2="32" stroke="#10b981" stroke-width="2" stroke-linecap="round"/>
  
  <!-- Clock indicator for automatic -->
  <circle cx="48" cy="20" r="6" fill="white" stroke="#10b981" stroke-width="1"/>
  <line x1="48" y1="20" x2="48" y2="17" stroke="#10b981" stroke-width="1" stroke-linecap="round"/>
  <line x1="48" y1="20" x2="50" y2="20" stroke="#10b981" stroke-width="1" stroke-linecap="round"/>
</svg>