<svg width="64" height="64" viewBox="0 0 64 64" xmlns="http://www.w3.org/2000/svg">
  <!-- Background circle -->
  <circle cx="32" cy="32" r="30" fill="#6366f1" opacity="0.1"/>
  <circle cx="32" cy="32" r="30" stroke="#6366f1" stroke-width="2" fill="none"/>
  
  <!-- Document shape -->
  <rect x="16" y="12" width="32" height="40" rx="2" fill="white" stroke="#6366f1" stroke-width="2"/>
  
  <!-- Document fold -->
  <path d="M 40 12 L 48 20 L 40 20 Z" fill="#e0e7ff" stroke="#6366f1" stroke-width="1"/>
  
  <!-- Chart lines -->
  <line x1="24" y1="28" x2="40" y2="28" stroke="#6366f1" stroke-width="1"/>
  <line x1="24" y1="32" x2="36" y2="32" stroke="#6366f1" stroke-width="1"/>
  <line x1="24" y1="36" x2="38" y2="36" stroke="#6366f1" stroke-width="1"/>
  
  <!-- Bar chart -->
  <rect x="24" y="40" width="4" height="6" fill="#10b981"/>
  <rect x="30" y="38" width="4" height="8" fill="#10b981"/>
  <rect x="36" y="36" width="4" height="10" fill="#10b981"/>
  
  <!-- Pie chart -->
  <circle cx="38" cy="24" r="6" fill="none" stroke="#6366f1" stroke-width="1"/>
  <path d="M 38 24 L 38 18 A 6 6 0 0 1 42 20 Z" fill="#10b981"/>
  <path d="M 38 24 L 42 20 A 6 6 0 0 1 44 24 Z" fill="#fbbf24"/>
  
  <!-- Report indicator -->
  <circle cx="20" cy="20" r="4" fill="#ef4444"/>
  <text x="20" y="23" text-anchor="middle" font-family="Arial" font-size="6" font-weight="bold" fill="white">!</text>
  
  <!-- Data points -->
  <circle cx="26" cy="28" r="1" fill="#6366f1"/>
  <circle cx="32" cy="28" r="1" fill="#6366f1"/>
  <circle cx="38" cy="28" r="1" fill="#6366f1"/>
  
  <!-- Trend arrow -->
  <path d="M 28 44 L 32 40 L 36 44" stroke="#10b981" stroke-width="1.5" fill="none" stroke-linecap="round" stroke-linejoin="round"/>
</svg>