<svg width="64" height="64" viewBox="0 0 64 64" xmlns="http://www.w3.org/2000/svg">
  <!-- Background circle -->
  <circle cx="32" cy="32" r="30" fill="#0ea5e9" opacity="0.1"/>
  <circle cx="32" cy="32" r="30" stroke="#0ea5e9" stroke-width="2" fill="none"/>
  
  <!-- Clock face -->
  <circle cx="32" cy="32" r="20" fill="white" stroke="#0ea5e9" stroke-width="2"/>
  
  <!-- Clock marks -->
  <line x1="32" y1="12" x2="32" y2="16" stroke="#0ea5e9" stroke-width="2" stroke-linecap="round"/>
  <line x1="52" y1="32" x2="48" y2="32" stroke="#0ea5e9" stroke-width="2" stroke-linecap="round"/>
  <line x1="32" y1="52" x2="32" y2="48" stroke="#0ea5e9" stroke-width="2" stroke-linecap="round"/>
  <line x1="12" y1="32" x2="16" y2="32" stroke="#0ea5e9" stroke-width="2" stroke-linecap="round"/>
  
  <!-- Clock hands -->
  <line x1="32" y1="32" x2="32" y2="20" stroke="#1e3a8a" stroke-width="2" stroke-linecap="round"/>
  <line x1="32" y1="32" x2="40" y2="32" stroke="#1e3a8a" stroke-width="2" stroke-linecap="round"/>
  <circle cx="32" cy="32" r="3" fill="#1e3a8a"/>
  
  <!-- Monitoring signal waves -->
  <path d="M 20 32 Q 15 32, 15 27 Q 15 22, 20 22" stroke="#10b981" stroke-width="2" fill="none" opacity="0.7"/>
  <path d="M 44 32 Q 49 32, 49 27 Q 49 22, 44 22" stroke="#10b981" stroke-width="2" fill="none" opacity="0.7"/>
  <path d="M 32 44 Q 32 49, 27 49 Q 22 49, 22 44" stroke="#10b981" stroke-width="2" fill="none" opacity="0.7"/>
  <path d="M 32 20 Q 32 15, 37 15 Q 42 15, 42 20" stroke="#10b981" stroke-width="2" fill="none" opacity="0.7"/>
  
  <!-- Center dot -->
  <circle cx="32" cy="32" r="2" fill="#0ea5e9"/>
</svg>