<svg width="64" height="64" viewBox="0 0 64 64" xmlns="http://www.w3.org/2000/svg">
  <!-- Background circle -->
  <circle cx="32" cy="32" r="30" fill="#ef4444" opacity="0.1"/>
  <circle cx="32" cy="32" r="30" stroke="#ef4444" stroke-width="2" fill="none"/>
  
  <!-- Headset shape -->
  <path d="M 20 32 C 20 24, 24 18, 32 18 C 40 18, 44 24, 44 32 L 44 36 C 44 38, 42 40, 40 40 L 38 40 C 36 40, 34 38, 34 36 L 34 32 C 34 30, 32 28, 30 28 C 28 28, 26 30, 26 32 L 26 36 C 26 38, 24 40, 22 40 L 20 40 C 18 40, 16 38, 16 36 L 16 32 C 16 24, 20 18, 28 18" 
        fill="none" stroke="#ef4444" stroke-width="2"/>
  
  <!-- Headband -->
  <path d="M 20 24 C 20 20, 24 16, 32 16 C 40 16, 44 20, 44 24" 
        fill="none" stroke="#ef4444" stroke-width="2"/>
  
  <!-- Ear pieces -->
  <rect x="16" y="28" width="6" height="12" rx="3" fill="#ef4444"/>
  <rect x="42" y="28" width="6" height="12" rx="3" fill="#ef4444"/>
  
  <!-- Microphone -->
  <line x1="32" y1="40" x2="32" y2="46" stroke="#ef4444" stroke-width="2"/>
  <circle cx="32" cy="48" r="3" fill="white" stroke="#ef4444" stroke-width="2"/>
  
  <!-- Speech bubble -->
  <ellipse cx="46" cy="24" rx="8" ry="6" fill="white" stroke="#ef4444" stroke-width="1"/>
  <path d="M 42 28 L 44 32 L 46 28" fill="white" stroke="#ef4444" stroke-width="1"/>
  
  <!-- Speech dots -->
  <circle cx="43" cy="24" r="1" fill="#ef4444"/>
  <circle cx="46" cy="24" r="1" fill="#ef4444"/>
  <circle cx="49" cy="24" r="1" fill="#ef4444"/>
  
  <!-- Support indicator -->
  <circle cx="32" cy="54" r="2" fill="#10b981"/>
  <circle cx="26" cy="54" r="2" fill="#10b981"/>
  <circle cx="38" cy="54" r="2" fill="#10b981"/>
</svg>