<svg width="120" height="60" viewBox="0 0 120 60" xmlns="http://www.w3.org/2000/svg">
  <!-- Sapori d'Italia - Logo azienda alimentare -->
  <rect width="120" height="60" fill="#f0fdf4" rx="8"/>
  
  <!-- Icon - Wheat/Grain -->
  <path d="M24 20C24 20 22 24 22 28C22 32 24 36 24 36C24 36 26 32 26 28C26 24 24 20 24 20Z" 
        fill="#22c55e"/>
  <path d="M18 22C18 22 16 26 16 30C16 34 18 38 18 38C18 38 20 34 20 30C20 26 18 22 18 22Z" 
        fill="#22c55e"/>
  <path d="M30 22C30 22 28 26 28 30C28 34 30 38 30 38C30 38 32 34 32 30C32 26 30 22 30 22Z" 
        fill="#22c55e"/>
  
  <!-- Text -->
  <text x="35" y="25" font-family="Inter, sans-serif" font-size="10" font-weight="700" fill="#22c55e">Sapori</text>
  <text x="35" y="35" font-family="Inter, sans-serif" font-size="8" fill="#64748b">d'Italia</text>
</svg>